<svg id="Capa_1" data-name="Capa 1" xmlns="http://www.w3.org/2000/svg" viewBox="0 0 145.51 167.43"><defs><style>.cls-1{fill:#e33c17;}.cls-2{fill:#fff;}</style></defs><title>logo(AP){mini}</title><g id="puño"><path class="cls-1" d="M340.49,244.49c0-1.49.07-7.71.16-16.23a31.94,31.94,0,0,0-4.9-8c-1.17-1.4-1.63-1.71-8.27-7.48a87.86,87.86,0,0,1-9-8.49,32.38,32.38,0,0,1-3.22-4.07,23.13,23.13,0,0,1-3.48-7.55c-.57-2.41-.06-2.33-.75-5.47a47.19,47.19,0,0,0-1.66-5.51c-1.22-3.48-1.42-3.22-1.72-4.72-.62-3.14.37-3.74-.59-5.52a23.35,23.35,0,0,1-1.71-3.48s-.12-.32-.21-.59c-1.2-3.49.85-9.32.85-9.32a52.69,52.69,0,0,1,3.91-8.89c1.39-2.5,1.87-2.93,6.16-9.91,2-3.24,2.41-4.08,2.68-5.41.35-1.68.12-2.57.38-7.13.07-1.24.12-1.76.21-3,.7-9.53.21-10.39.91-13.56a19.92,19.92,0,0,1,4.18-8.3,22.2,22.2,0,0,1,7.82-6,24.73,24.73,0,0,1,5.36-1.66A50.15,50.15,0,0,1,352,93.48c.11,0,.3,0,.54,0,2.81.13,4.37-2.27,7.55-3.91a21.26,21.26,0,0,1,3.7-1.29,40.57,40.57,0,0,1,9.91-1.5c12.35-.61,10.64-.92,17.41-1,5.47-.08,12.27.05,12.27.05a13.16,13.16,0,0,1,6.59,4,9.05,9.05,0,0,0,1.92,2,11,11,0,0,0,4.4,1.66c2.89.66,2.83.41,4.93.91A41.43,41.43,0,0,1,427,96.37a29.56,29.56,0,0,1,3.1,1.34,24.56,24.56,0,0,1,4.45,3c2.37,2,2.4,2.76,5.25,5.94,2.55,2.84,3.27,3,6.7,6.86,1.91,2.13,2.72,3.22,3.16,4.82s.22,2.68.05,4.88c0,.09,0,2.74,0,8,0,3.88.11,5.59.27,10.61.42,13.54.6,20.39-.43,24.37a49.9,49.9,0,0,0-1.39,6.65c-.53,3.89.31,4.94-.38,8.35a25.53,25.53,0,0,1-2.09,6,38.18,38.18,0,0,1-3,5.25,52.64,52.64,0,0,1-4.61,6.27c-2.45,2.83-2.93,2.67-5.09,5.41a26.43,26.43,0,0,0-3.1,4.77c-1.22,2.49-1.68,3.76-1.72,4.77,0,.16,0,.72-.05,1.6,0,1.14-.1,2-.11,2.09-.18,3-.59,31.07-.59,31.08a9.14,9.14,0,0,1-5,4.39c-2.72.93-5,.12-7-.59-1.17-.41-4.51-1.6-4.77-3.7a2.32,2.32,0,0,1,.06-.8s.85-3.52,1.28-47.09L430,182.51s.44-.19.54-.53a1.06,1.06,0,0,0-.22-.81c-.7-1.13,1.29-3.91,1.29-3.91s1.57-2.18,1.07-19.6c-21,0-29.13-.08-30.27-.17a6.2,6.2,0,0,0-.64,0,5.42,5.42,0,0,0-3,1.45,10.27,10.27,0,0,1-4.61,1.88c-.57.1-3.93.73-6.06.21a1.57,1.57,0,0,0-1.28.11,1.41,1.41,0,0,0-.43,1.07c-.49,9-.73,13.5-.27,15.27a6.08,6.08,0,0,1-.05,2.94,2.29,2.29,0,0,1-.43.81,2.09,2.09,0,0,1-1.18.69,2.29,2.29,0,0,1-1.55-.53c-1.14-.73.37.49-3-1.45-2.89-1.66-3.77-2.43-5.41-3.32s-2.14-.86-5.73-2.14c-4.21-1.5-4.2-1.8-7-2.79-6.43-2.25-8.33-1.37-12.91-3.7a24.33,24.33,0,0,1-4.66-3.58,3.88,3.88,0,0,1-1.66-2.47,4.09,4.09,0,0,1,.58-2.09c.35-.74.62-1.31,1.24-1.55a2.18,2.18,0,0,1,1.34,0,3.32,3.32,0,0,1,1.23.59c.5.38.46.58,1,1.18a5.26,5.26,0,0,0,1.5,1.17,7.43,7.43,0,0,0,1.66.54s.77.2,1.44.32a24,24,0,0,0,7.24.11,34.69,34.69,0,0,0,6.53-2.36,58,58,0,0,0,8.3-3.86c2.74-1.7,4.5-2.8,5.95-5s1.86-4.65,2.25-7.29c.48-3.23-.21-2.77.27-7.18a11.08,11.08,0,0,0-.16-5.08,18.5,18.5,0,0,0-1.07-2.36,13.36,13.36,0,0,0-1-1.56c-.76-1-.95-.95-1.5-1.82-.44-.69-.48-1-.91-1.23a1.51,1.51,0,0,0-1.28,0c-.29.12-.48.37-.86.85a4.84,4.84,0,0,0-.64,1,4.19,4.19,0,0,0-.33,1.87,4.79,4.79,0,0,0,.17,1.56,10.05,10.05,0,0,0,.8,1.55c.49,1,.38,1.12.7,1.45.6.63,1.19.4,1.39.85.26.61-.56,1.57-1.13,2a8.92,8.92,0,0,1-1.55.86c-.33.16-.75.37-1.29.59a16.69,16.69,0,0,1-1.87.64c-1.46.45-1.46.8-3.64,1.77a11.18,11.18,0,0,1-3,1.07c-1.15.13-1.64-.11-2.41.32s-.66.86-1.5,1.34a4.53,4.53,0,0,1-2.15.48c-1,.06-.89-.14-2.3-.16a9,9,0,0,1-2.63-.16,2.15,2.15,0,0,1-.75-.27c-.93-.76.43-2.55-.32-4.77a5.41,5.41,0,0,0-1.34-2.08,13.93,13.93,0,0,0-1.76-1.29c-1.49-1.05-1.52-1.16-1.88-1.23s-.45,0-2.46.48a10.12,10.12,0,0,0-1.93.54,9.54,9.54,0,0,0-1.72,1.07c-.64.46-1.1.84-1.18.91a36.41,36.41,0,0,1-4.5,2.94c-3.13,1.82-6.69,5.9-9.21,8.79-4.77,5.48-6,8.47-6.32,9.16a26.85,26.85,0,0,0-1.18,3.8,24.49,24.49,0,0,0-.48,3.27c-.09,1.08-.08,2.17-.06,4.29,0,1.43,0,2.15.06,2.78a40.66,40.66,0,0,0,1.18,7.66c.1.5.59,2.67,1.44,5.52a43.54,43.54,0,0,0,2,5.73,39.49,39.49,0,0,0,2.78,5.15,32.75,32.75,0,0,0,3.75,5.35,35.44,35.44,0,0,0,3.91,3.59c2.49,2.1,4.5,3.55,4.93,3.86a151.67,151.67,0,0,0,14.89,9.11c3,1.67,5.89,3.56,8.9,5.25,1,.55,1.84,1.27,2.78,1.87.66.43,1,.61,1.18,1,.54,1.08-.25,2.48-.48,2.89-.64,1.14-1.27,1.4-3.86,3.38a18.22,18.22,0,0,0-3.21,2.78,13.2,13.2,0,0,0-1.66,2.63,18.55,18.55,0,0,0-1.13,2.95,14.87,14.87,0,0,0-.64,2.41c-.2,1.21,0,1.4-.22,2.94a5.36,5.36,0,0,1-.59,2.41,4,4,0,0,1-1.92,1.45,11.94,11.94,0,0,1-4.34.8c-3.59.27-4.72,0-5.2-.1a5.08,5.08,0,0,1-2.52-1.24,4.94,4.94,0,0,1-1.18-2.19A5.44,5.44,0,0,1,340.49,244.49Z" transform="translate(-304.76 -85.79)"/><path class="cls-2" d="M414.42,112.07c-.47,5.25-.32,32.14-.32,32.14h0s1,1.25,1.21,1.53c1,1.1,3.07.6,6.5.24,4.56-.49,5.37-.08,7.64-1a5.93,5.93,0,0,0,3.37-2.65,5,5,0,0,0,.41-1.12c1.52-6.88-.33-16.32-.33-16.32a63.8,63.8,0,0,0-2-7.63c-1-3-1.47-4.48-2.57-6a61.58,61.58,0,0,0-5-4.34c-1.46-1.22-2.19-1.8-3.21-1.76s-1.8.68-2.82,1.52a8.09,8.09,0,0,0-2.25,2.82A7.55,7.55,0,0,0,414.42,112.07Z" transform="translate(-304.76 -85.79)"/><path class="cls-2" d="M383.24,103.47c-.47,1.32.58,2.61,1.29,3.94.54,1,.44,1.21,1.36,8.83.73,6,.77,5.7,1,8,.05.62.28,3.27.4,7,.21,6.4.31,9.6.08,11.57-.27,2.34-.67,4,.24,5.87a6.29,6.29,0,0,0,3,3,7.25,7.25,0,0,0,4.5.24,10.64,10.64,0,0,0,5.38-2.33c1.39-1.19,1-1.56,2.57-3a3.33,3.33,0,0,0,1.13-1.77,2.81,2.81,0,0,0,0-1s-.38-2.09.64-34.72h0a12.11,12.11,0,0,0-2.89-4.1c-.3-.24-.44-.32-3.14-1.52s-4.22-1.89-4.66-2a15.69,15.69,0,0,0-5.22-.48,7.92,7.92,0,0,0-3.94.88A3.54,3.54,0,0,0,383.24,103.47Z" transform="translate(-304.76 -85.79)"/><path class="cls-2" d="M358,106.6a10.6,10.6,0,0,0-1.13,3.43,11.2,11.2,0,0,0,.91,6.21c1,2.32,2,2.78,2.36,2.9a3,3,0,0,0,.8.16,26.17,26.17,0,0,0,9.59-.86c3.8-1.33,7.11-2.49,8.15-5.68,1.1-3.41-1-7.47-3.81-9.27-1.5-.94-3.16-1-6.48-1.17s-6-.25-8.09,1.44A9.49,9.49,0,0,0,358,106.6Z" transform="translate(-304.76 -85.79)"/><path class="cls-2" d="M331.09,112.89c-.72,4.29.49,6.18.16,10.53a5.12,5.12,0,0,0,0,1,6,6,0,0,0,3.14,4.26c.63.33,1.24.5,5.54.32,3.62-.15,5.45-.23,6.59-.64,1.34-.48,2.53-1.37,4.9-3.14a5.77,5.77,0,0,0,2.33-2.73A4.45,4.45,0,0,0,354,121c.08-5.12.88-6.36,0-9.17a6.42,6.42,0,0,0-1.44-2.65,5.19,5.19,0,0,0-2.49-1.44,4.83,4.83,0,0,0-2.09,0c-3.18.59-6.43.73-9.65,1.12-4.12.5-5.55.41-6.51,1.69A5.06,5.06,0,0,0,331.09,112.89Z" transform="translate(-304.76 -85.79)"/></g></svg>